<?xml version="1.0" encoding="UTF-8" standalone="no"?>
<svg
   xmlns:dc="http://purl.org/dc/elements/1.1/"
   xmlns:cc="http://creativecommons.org/ns#"
   xmlns:rdf="http://www.w3.org/1999/02/22-rdf-syntax-ns#"
   xmlns:svg="http://www.w3.org/2000/svg"
   xmlns="http://www.w3.org/2000/svg"
   width="50.799999mm"
   height="50.799999mm"
   viewBox="0 0 50.799999 50.799999"
   version="1.1"
   id="svg8">
  <defs
     id="defs2" />
  <metadata
     id="metadata5">
    <rdf:RDF>
      <cc:Work
         rdf:about="">
        <dc:format>image/svg+xml</dc:format>
        <dc:type
           rdf:resource="http://purl.org/dc/dcmitype/StillImage" />
        <dc:title></dc:title>
      </cc:Work>
    </rdf:RDF>
  </metadata>
  <path
     id="path4534"
     d="M 50.799999,25.4 A 25.4,25.4 0 0 1 25.4,50.799999 25.4,25.4 0 0 1 0,25.4 25.4,25.4 0 0 1 25.4,0 25.4,25.4 0 0 1 50.799999,25.4 Z"
     style="opacity:0.5;fill:#576d28;fill-opacity:1;stroke:none;stroke-width:4;stroke-linecap:butt;stroke-linejoin:miter;stroke-miterlimit:4;stroke-dasharray:none;stroke-dashoffset:0;stroke-opacity:1" />
  <path
     id="path4673"
     transform="scale(0.28222222,0.28222222)"
     d="M 90 0 A 89.999998 89.999998 0 0 0 50.070312 9.390625 C 79.190357 10.163592 106.12704 9.3507632 127.31445 8.2011719 A 89.999998 89.999998 0 0 0 90 0 z M 131.03516 9.9960938 C 108.50734 11.300459 78.766277 12.278904 46.566406 11.289062 A 89.999998 89.999998 0 0 0 32.144531 21.179688 C 51.958503 22.183571 74.105068 21.602051 94.824219 20.332031 C 112.20725 19.266506 128.40486 17.750163 141.62109 16.332031 A 89.999998 89.999998 0 0 0 131.03516 9.9960938 z M 143.93555 18.089844 C 130.34681 19.57315 113.31295 21.200532 94.949219 22.326172 C 73.416949 23.646033 50.409149 24.282598 29.927734 23.126953 A 89.999998 89.999998 0 0 0 25.113281 27.78125 C 52.425804 31.767783 81.379983 30.987521 106.39648 28.560547 C 123.02458 26.947374 137.89717 24.617267 149.4082 22.496094 A 89.999998 89.999998 0 0 0 143.93555 18.089844 z M 151.22266 24.185547 C 139.4693 26.386235 124.00145 28.857689 106.58984 30.546875 C 81.04986 33.024634 51.404839 33.825218 23.447266 29.568359 A 89.999998 89.999998 0 0 0 19.955078 33.609375 C 48.901998 38.602802 80.172495 37.897197 106.93555 35.300781 C 126.32712 33.41951 143.29429 30.566976 155.35938 28.205078 A 89.999998 89.999998 0 0 0 151.22266 24.185547 z M 156.88281 29.9375 C 144.70246 32.35499 127.26101 35.341807 107.12891 37.294922 C 79.93548 39.933089 48.088782 40.665649 18.580078 35.417969 A 89.999998 89.999998 0 0 0 13.351562 43.046875 C 15.53389 43.315054 17.791852 43.541094 20.117188 43.730469 C 38.84564 45.255703 61.886316 44.311692 84.244141 42.361328 C 114.80462 39.695414 143.74618 35.208475 159.22656 32.605469 A 89.999998 89.999998 0 0 0 156.88281 29.9375 z M 161.38086 35.287109 C 146.3413 37.843952 116.28474 42.57741 84.505859 45.349609 C 62.054364 47.308144 38.90078 48.270152 19.875 46.720703 C 17.026901 46.488756 14.285244 46.193686 11.636719 45.84375 A 89.999998 89.999998 0 0 0 9.7207031 49.537109 C 16.901676 49.788493 24.746316 50.371219 33.384766 51.357422 C 55.450856 53.876579 96.273906 49.046497 131.44141 43.550781 C 143.04924 41.736796 153.90686 39.870222 163.43555 38.160156 A 89.999998 89.999998 0 0 0 161.38086 35.287109 z M 164.7207 39.958984 C 154.97014 41.714209 143.74507 43.648327 131.74609 45.523438 C 96.523396 51.027781 55.787182 55.926502 33.164062 53.34375 C 24.216588 52.322267 16.121114 51.735968 8.7675781 51.509766 A 89.999998 89.999998 0 0 0 3.7167969 64.589844 C 14.56222 64.677205 27.254035 65.475989 42.160156 67.177734 C 64.169405 69.690407 102.7878 62.682435 135.75391 54.998047 C 147.8962 52.167684 159.25013 49.256971 168.78906 46.701172 A 89.999998 89.999998 0 0 0 164.7207 39.958984 z M 169.82031 48.5 C 160.1657 51.091554 148.58037 54.065455 136.20898 56.949219 C 103.17049 64.65048 64.611602 71.753306 41.931641 69.164062 C 26.853582 67.442687 14.069485 66.659115 3.2050781 66.595703 A 89.999998 89.999998 0 0 0 0.65820312 79.636719 C 2.3107738 79.2724 3.9813629 78.905417 5.7304688 78.533203 C 17.189472 76.094703 27.125 72.167969 46.464844 72.167969 C 56.163559 72.167969 70.647399 73.555016 82.804688 76.527344 C 88.88333 78.013509 94.37016 79.887742 98.429688 82.244141 C 102.48922 84.600535 105.26172 87.551056 105.26172 91.185547 C 105.26172 94.820037 102.53619 97.988175 98.492188 100.72852 C 94.44819 103.46886 88.960781 105.85667 82.880859 107.85547 C 70.721016 111.85307 56.23405 114.27148 46.464844 114.27148 C 40.568932 114.27148 22.058355 113.80315 2.890625 112.33984 A 89.999998 89.999998 0 0 0 9.3164062 129.76367 C 17.62332 121.65839 30.97646 117.37998 46.699219 115.54492 C 56.341673 114.41952 66.911667 114.21491 77.828125 114.65234 C 88.744579 115.08978 100.00588 116.17019 111.05273 117.61523 C 133.69174 120.57666 155.30903 125.06251 171.10547 128.75 A 89.999998 89.999998 0 0 0 173.51758 123.34375 C 165.51466 121.58465 157.57774 118.73494 150.30078 115.26758 C 140.2702 110.48816 131.47759 104.53953 125.45508 98.603516 C 122.44382 95.635511 120.12412 92.668478 118.69336 89.806641 C 117.2626 86.944804 116.7076 84.145782 117.42773 81.613281 C 119.03383 75.965066 124.8358 70.961688 132.45898 66.394531 C 140.08217 61.827379 149.61344 57.736347 158.95703 54.291016 C 162.97306 52.810156 166.91582 51.477982 170.69141 50.253906 A 89.999998 89.999998 0 0 0 169.82031 48.5 z M 171.51172 52.087891 C 167.69932 53.32128 163.71063 54.668852 159.65039 56.166016 C 150.37524 59.586115 140.9259 63.651842 133.48242 68.111328 C 126.03895 72.570817 120.68575 77.468194 119.35156 82.160156 C 118.81227 84.056704 119.18966 86.336062 120.47852 88.914062 C 121.76738 91.492063 123.95741 94.317446 126.85938 97.177734 C 132.66331 102.89831 141.3006 108.76589 151.1582 113.46289 C 158.40353 116.91518 166.30153 119.71448 174.2207 121.41602 A 89.999998 89.999998 0 0 0 178.00586 108.66211 C 163.61285 102.80687 155.77032 87.622515 158.99805 76.271484 C 161.1774 68.607297 167.30941 62.838009 174.26758 58.542969 A 89.999998 89.999998 0 0 0 171.51172 52.087891 z M 174.91992 60.509766 C 168.42231 64.621911 162.85942 70.01139 160.92383 76.818359 C 158.08382 86.805895 165.05593 101.07642 178.37891 106.72852 A 89.999998 89.999998 0 0 0 179.52344 99.167969 C 170.41981 93.695611 165.57913 84.604373 168.30664 77.025391 C 169.80788 72.853868 172.99418 69.532595 176.92578 66.837891 A 89.999998 89.999998 0 0 0 174.91992 60.509766 z M 177.91406 71.244141 C 175.13171 73.382229 173.00985 75.77558 172.07227 78.380859 C 170.38732 83.062861 173.1446 89.784693 179.77344 94.546875 A 89.999998 89.999998 0 0 0 180 90 A 89.999998 89.999998 0 0 0 177.91406 71.244141 z M 46.464844 74.167969 C 27.394796 74.167969 17.798667 78.01216 6.1445312 80.492188 C 4.1673553 80.912935 2.2650239 81.327788 0.41210938 81.738281 A 89.999998 89.999998 0 0 0 0.3515625 82.951172 C 1.3378233 82.74767 2.2040157 82.554436 3.2324219 82.347656 C 12.328148 80.518792 20.257102 77.558594 35.654297 77.558594 C 43.380099 77.558594 54.898605 78.600937 64.582031 80.837891 C 69.423748 81.956367 73.806034 83.365443 77.060547 85.150391 C 78.687804 86.042865 80.035621 87.031324 81.017578 88.173828 C 81.999538 89.316329 82.609375 90.65328 82.609375 92.097656 C 82.609375 94.986405 80.355752 97.407621 77.115234 99.482422 C 73.874717 101.55722 69.501489 103.35492 64.658203 104.85938 C 54.971627 107.86828 43.446702 109.68359 35.654297 109.68359 C 31.061514 109.68359 16.863986 109.33689 1.9824219 108.29492 A 89.999998 89.999998 0 0 0 2.4277344 110.28516 C 21.754927 111.7796 40.614894 112.27148 46.464844 112.27148 C 55.900593 112.27148 70.312988 109.88528 82.25 105.96094 C 88.218502 103.99877 93.579082 101.64381 97.371094 99.074219 C 101.16311 96.504627 103.26172 93.788942 103.26172 91.185547 C 103.26172 88.582152 101.20422 86.164755 97.427734 83.972656 C 93.651249 81.780557 88.295957 79.932208 82.326172 78.472656 C 70.386605 75.553559 55.971076 74.167969 46.464844 74.167969 z M 35.654297 79.558594 C 20.512021 79.558594 12.908344 82.440445 3.6269531 84.306641 C 2.4208952 84.549141 1.3976403 84.7776 0.25 85.015625 A 89.999998 89.999998 0 0 0 0.10351562 87.927734 C 3.013869 87.247921 6.3542468 86.537013 10.214844 85.787109 C 15.46057 84.768146 20.363993 83.033203 29.626953 83.033203 C 34.310998 83.033203 41.153431 83.628152 47.011719 84.935547 C 49.940864 85.589245 52.605654 86.402789 54.720703 87.523438 C 55.778231 88.083762 56.71025 88.721395 57.455078 89.558594 C 58.199906 90.395789 58.761719 91.522739 58.761719 92.755859 C 58.761722 95.222107 56.926776 96.895437 54.837891 98.1875 C 52.749008 99.47956 50.08298 100.52622 47.150391 101.40625 C 41.285204 103.16631 34.439678 104.2168 29.626953 104.2168 C 25.929688 104.2168 12.387767 103.87807 0.99023438 102.67969 A 89.999998 89.999998 0 0 0 1.5234375 106.25 C 16.572614 107.31991 31.100379 107.68359 35.654297 107.68359 C 43.131631 107.68359 54.589816 105.89169 64.0625 102.94922 C 68.798842 101.47798 73.04531 99.715085 76.035156 97.800781 C 79.025002 95.886481 80.609375 93.895133 80.609375 92.097656 C 80.609375 91.198914 80.259609 90.353867 79.503906 89.474609 C 78.748204 88.595355 77.585583 87.724262 76.097656 86.908203 C 73.121806 85.276085 68.870731 83.885515 64.132812 82.791016 C 54.656982 80.602021 43.198231 79.558594 35.654297 79.558594 z M 29.626953 87.033203 C 20.856532 87.033203 16.582417 88.622023 10.976562 89.710938 C 6.7148575 90.538756 3.1311475 91.314834 0.072265625 92.048828 A 89.999998 89.999998 0 0 0 0.49609375 98.595703 C 11.763729 99.822462 26.090158 100.2168 29.626953 100.2168 C 33.830923 100.2168 40.551751 99.207215 46 97.572266 C 48.724123 96.754793 51.144266 95.766754 52.734375 94.783203 C 54.324487 93.799652 54.761719 92.962895 54.761719 92.755859 C 54.761719 92.652338 54.751971 92.532931 54.470703 92.216797 C 54.189453 91.900667 53.633531 91.474869 52.851562 91.060547 C 51.287618 90.231902 48.866246 89.446602 46.138672 88.837891 C 40.683531 87.620463 33.959599 87.033203 29.626953 87.033203 z M 65.736328 116.44922 C 59.188604 116.49976 52.874797 116.83806 46.935547 117.53125 C 31.125236 119.37652 18.074039 123.74207 10.271484 131.66016 A 89.999998 89.999998 0 0 0 17.335938 142.91992 C 27.644029 136.70282 41.141012 130.72898 56.138672 126.66016 C 66.642699 123.81044 77.877708 121.89816 89.226562 121.52344 C 100.57541 121.14871 112.03916 122.31076 123.01953 125.60742 C 136.13018 129.54366 148.53027 136.5481 159.14453 147.57422 A 89.999998 89.999998 0 0 0 170.21484 130.5957 C 154.50855 126.94066 133.12695 122.52062 110.79688 119.59961 C 95.67148 117.62104 80.141321 116.33802 65.736328 116.44922 z M 93.474609 123.46289 C 80.896767 123.44304 68.336952 125.42355 56.666016 128.58984 C 41.923261 132.58951 28.617939 138.48758 18.507812 144.55859 A 89.999998 89.999998 0 0 0 26.572266 153.76172 C 34.133015 145.75779 45.634915 137.73997 59.15625 132.24414 C 67.363857 128.90811 76.326637 126.51251 85.572266 125.71094 C 94.817891 124.90936 104.34334 125.69986 113.68945 128.72266 C 126.87442 132.98705 139.59863 141.72688 150.50781 156.49023 A 89.999998 89.999998 0 0 0 157.82617 149.0625 C 147.43695 138.22008 135.31005 131.38779 122.44531 127.52539 C 113.05085 124.70488 103.25738 123.47833 93.474609 123.46289 z M 92.511719 129.42383 C 81.429175 129.38839 70.521182 131.94157 60.666016 135.94727 C 47.697237 141.2185 36.593525 149.04402 29.507812 156.49609 A 89.999998 89.999998 0 0 0 50.130859 170.56641 C 56.224048 162.01901 65.950052 150.06669 77.378906 142.31445 C 84.661143 137.37488 92.720045 134.13132 100.91602 134.72852 C 103.648 134.92758 106.39809 135.55683 109.13672 136.6875 C 118.36762 140.49857 127.31173 149.94711 135.34766 167.61328 A 89.999998 89.999998 0 0 0 147.51172 159.125 C 137.02087 144.79151 124.92128 136.558 112.45898 132.52734 C 105.87328 130.39734 99.161245 129.44509 92.511719 129.42383 z M 98.826172 136.64844 C 91.849075 136.67282 84.966498 139.58054 78.5 143.9668 C 67.529213 151.40833 58.022116 163.03735 51.980469 171.45898 A 89.999998 89.999998 0 0 0 64.560547 176.27539 C 68.661784 168.99757 74.033584 160.97882 80.3125 155.17969 C 83.975521 151.79656 87.960159 149.15623 92.236328 147.91211 C 94.374413 147.29004 96.587767 147.02755 98.839844 147.19922 C 101.09192 147.37089 103.38446 147.98126 105.68359 149.0957 C 112.29083 152.2984 118.94696 159.5803 125.54492 172.57031 A 89.999998 89.999998 0 0 0 133.60352 168.61328 C 125.67436 151.13466 116.96963 142.08595 108.36914 138.53516 C 105.18946 137.2224 101.99758 136.63736 98.826172 136.64844 z M 97.195312 149.14258 C 95.710899 149.17276 94.246208 149.41427 92.796875 149.83594 C 88.931992 150.9604 85.181155 153.40941 81.669922 156.65234 C 75.766722 162.10447 70.615656 169.75392 66.611328 176.79883 A 89.999998 89.999998 0 0 0 76.744141 178.9043 C 79.214665 173.10215 82.579457 166.44356 86.595703 161.69141 C 88.768714 159.12023 91.143459 157.08207 93.779297 156.09961 C 95.097216 155.60839 96.489824 155.40155 97.898438 155.53906 C 99.307051 155.67657 100.73089 156.15676 102.13281 157.02734 C 106.39079 159.67152 110.52565 165.67099 114.60938 176.54297 A 89.999998 89.999998 0 0 0 123.70117 173.39453 C 117.22366 160.71671 110.79838 153.79698 104.81055 150.89453 C 102.19875 149.62853 99.669335 149.09228 97.195312 149.14258 z M 96.890625 157.47656 C 96.082339 157.50023 95.283322 157.67463 94.478516 157.97461 C 92.33237 158.77455 90.166087 160.56343 88.125 162.97852 C 84.442711 167.33552 81.242853 173.62283 78.828125 179.2207 A 89.999998 89.999998 0 0 0 90 180 A 89.999998 89.999998 0 0 0 112.63281 177.04492 C 108.61588 166.52829 104.62942 160.93142 101.08203 158.72852 C 99.612174 157.81574 98.237768 157.43712 96.890625 157.47656 z "
     style="fill:#d9e6bc;fill-opacity:1;stroke:none;stroke-width:1.04588234;stroke-miterlimit:4;stroke-dasharray:none" />
  <path
     d="M 25.06052,30.65707 40.4317,15.28589 c 0.37625,-0.37538 0.99023,-0.37495 1.36734,8.8e-4 0.37107,0.3715 0.37193,0.98893 -10e-4,1.36302 L 26.4247,32.02097 c -0.37322,0.37495 -0.98893,0.37495 -1.36086,0.002 -0.37495,-0.37409 -0.37581,-0.99109 -0.003,-1.36561 m 2.72658,2.72791 13.00111,-13.00025 c 0.37495,-0.37451 0.9885,-0.37581 1.36388,0 0.37323,0.37366 0.37236,0.98937 -0.001,1.36345 L 29.15102,34.74785 c -0.3728,0.37366 -0.98764,0.37539 -1.36216,10e-4 -0.37452,-0.37538 -0.37452,-0.99065 -0.001,-1.36388 m 2.72647,2.72677 10.36524,-10.36439 c 0.37538,-0.37451 0.98894,-0.37581 1.36431,-0.002 0.37194,0.37366 0.3728,0.99066 -0.002,1.36561 L 31.87836,37.47535 c -0.37365,0.37408 -0.98979,0.37408 -1.36388,-10e-4 -0.37279,-0.37323 -0.37279,-0.98894 -4.2e-4,-1.36259"
     style="clip-rule:evenodd;fill:#df5206;fill-rule:evenodd;stroke-width:0.38221318"
     id="path11" />
  <path
     d="M 22.35735,28.93291 8.558455,15.13401 c -0.375812,-0.37581 -0.374949,-0.98979 0.0013,-1.36647 0.371066,-0.37106 0.988934,-0.37193 1.362588,0.002 L 23.72124,27.56887 c 0.37409,0.37322 0.37409,0.9898 8.8e-4,1.36173 -0.37409,0.37581 -0.99152,0.37581 -1.36475,0.003 M 25.12524,26.24657 13.657588,14.77891 c -0.374517,-0.37495 -0.375812,-0.9885 0,-1.36388 0.373223,-0.37366 0.989796,-0.37279 1.363019,4.2e-4 L 26.48826,24.88354 c 0.37366,0.37365 0.37495,0.98764 0,1.36302 -0.37408,0.37365 -0.99022,0.37365 -1.36302,0 m 2.79724,-2.657 -8.902561,-8.90255 c -0.375812,-0.37581 -0.376675,-0.98894 -0.0013,-1.36345 0.372792,-0.37236 0.990228,-0.37323 1.364314,0 l 8.902987,8.90255 c 0.37366,0.37409 0.37366,0.9898 -8.8e-4,1.36432 -0.37322,0.37279 -0.98979,0.37279 -1.36259,-8.8e-4"
     style="clip-rule:evenodd;fill:#6a7029;fill-rule:evenodd;stroke-width:0.38221318"
     id="path17" />
  <path
     style="clip-rule:evenodd;fill:#6a7029;fill-rule:evenodd;stroke-width:0.38221318"
     d="m 18.546163,29.39847 -4.2e-4,-0.003 c 0,0 -0.176904,0.18898 -0.415508,0.50655 -0.0082,0.0125 -0.01855,0.0237 -0.02675,0.0362 -0.512588,0.69251 -1.307359,2.00937 -1.472613,3.73612 -0.24637,2.57847 0.834466,4.08086 0.834466,4.08086 0,0 -0.138502,-1.52439 0.623477,-2.44429 0.188553,-0.22782 0.377969,-0.40861 0.557461,-0.55099 0.674822,0.63815 1.58005,1.03683 2.582794,1.03683 1.15763,0 2.1923,-0.52165 2.88395,-1.34404 0.54969,-0.65367 -4.884268,-5.75021 -5.566856,-5.05468"
     id="path19" />
</svg>
